<svg id="Layer_1" data-name="Layer 1" xmlns="http://www.w3.org/2000/svg" viewBox="0 0 225 225"><defs><style>.cls-1{fill:#0047e5;}</style></defs><path class="cls-1" d="M808,373h25c1.3.28,2.58.62,3.89.84,37.4,6.35,65.31,26,83.53,59.37,6.8,12.44,10.17,26,12.58,39.79v25c-.33,1.62-.68,3.24-1,4.87q-14,71.43-83.89,91.94C843.18,596.24,838,597,833,598H808c-1.46-.31-2.91-.67-4.37-.94-40.68-7.36-69.74-29.7-86.89-67.4-4.59-10.09-6.66-20.88-8.74-31.66V473c.33-1.62.71-3.24,1-4.87q9.76-54.84,58.31-82.13C780,378.91,793.82,375.42,808,373Zm-50.19,61.32c-.78,2.5.28,4.15.89,5.79,4.38,11.69,8.92,23.32,13.28,35a24.56,24.56,0,0,0,10.39,12.38c7.24,4.58,15.19,7.54,23.18,10.44,16.9,6.14,34.36,10.65,51,17.57,4.93,2.06,9.91,4.16,13.73,8,3.18,3.19,4.07,1.85,5-1.64,2.71-10.82,5.36-21.67,8.51-32.36,1.64-5.55-.07-9.39-4.24-12.66-4.9-3.86-10.5-6.41-16.3-8.55-21.31-7.86-43.61-12.12-65.44-18.09C784,446.46,769.85,443.58,757.81,434.32Zm38.35,102.34a4.27,4.27,0,0,0,.15,1.12q5.61,16.54,11.28,33.08c1,3,2.94,1.93,4.76.85,17.47-10.37,35-20.63,52.36-31.17,7-4.25,6.84-6.2,0-10.88q-.62-.42-1.26-.81c-10.13-6-21.26-9.47-32.36-13a5.59,5.59,0,0,0-3.41,0c-10,3.82-19.8,7.92-28.28,14.6C797.54,531.89,796,533.66,796.16,536.66Zm-11-127.33c-8.2.87-16.58,1.29-24.08,5.36-5.86,3.19-6.19,8.07-1,12.26a20.81,20.81,0,0,0,2.9,1.92c9.64,5.46,20.24,8.27,30.82,11.12,3.44.93,4.21-.62,3.46-3.69-1.75-7.26-3.61-14.5-5.12-21.81C791.26,410.47,789.28,408.65,785.14,409.33Z" transform="translate(-708 -373)"/></svg>